# xmcd
#
# Track frame offsets:
#	150
#	15169
#	28360
#	49233
#	68575
#	85608
#	99322
#	121707
#	134633
#	149749
#	169829
#	185377
#	214150
#
# Disc length: 3372 seconds
#
# Revision: 0
# Processed by: cddbd v1.5.2PL0 Copyright (c) Steve Scherf et al.
# Submitted via: audiograbber 1.83.01
#
DISCID=b20d2a0d
DTITLE=Alexander And The Grapes - Hemispheres
DYEAR=2012
DGENRE=Folk-Rock
TTITLE0=Another Year
TTITLE1=Concience
TTITLE2=Conversation
TTITLE3=East Coast
TTITLE4=Where I Go
TTITLE5=Chuck Stewart Has A Dream
TTITLE6=Ocean
TTITLE7=Salesman
TTITLE8=Jordan
TTITLE9=Can't Waste Too Much Time
TTITLE10=Swan Song
TTITLE11=Seeds
TTITLE12=Piste de données
EXTD=
EXTT0=
EXTT1=
EXTT2=
EXTT3=
EXTT4=
EXTT5=
EXTT6=
EXTT7=
EXTT8=
EXTT9=
EXTT10=
EXTT11=
EXTT12=
PLAYORDER=
